<?xml version="1.0" encoding="UTF-8"?>
<svg id="Capa_1" data-name="Capa 1" xmlns="http://www.w3.org/2000/svg" xmlns:xlink="http://www.w3.org/1999/xlink" viewBox="0 0 200 100">
  <defs>
    <style>
      .cls-1 {
        fill: #81bfda;
        filter: url(#drop-shadow-2);
      }

      .cls-2, .cls-3, .cls-4, .cls-5, .cls-6, .cls-7, .cls-8 {
        fill: #fff;
      }

      .cls-9 {
        fill: #fada7a;
        filter: url(#drop-shadow-4);
      }

      .cls-3 {
        filter: url(#drop-shadow-7);
      }

      .cls-4 {
        filter: url(#drop-shadow-5);
      }

      .cls-10 {
        filter: url(#drop-shadow-10);
      }

      .cls-5 {
        filter: url(#drop-shadow-1);
      }

      .cls-11 {
        fill: #f5f0cd;
        filter: url(#drop-shadow-3);
      }

      .cls-6 {
        filter: url(#drop-shadow-8);
      }

      .cls-7 {
        filter: url(#drop-shadow-6);
      }

      .cls-8 {
        filter: url(#drop-shadow-9);
      }
    </style>
    <filter id="drop-shadow-1" x="1" y="24" width="42" height="42" filterUnits="userSpaceOnUse">
      <feOffset dx="1" dy="1"/>
      <feGaussianBlur result="blur" stdDeviation="2"/>
      <feFlood flood-color="#000" flood-opacity=".66"/>
      <feComposite in2="blur" operator="in"/>
      <feComposite in="SourceGraphic"/>
    </filter>
    <filter id="drop-shadow-2" x="1" y="46" width="43" height="43" filterUnits="userSpaceOnUse">
      <feOffset dx="1" dy="1"/>
      <feGaussianBlur result="blur-2" stdDeviation="2"/>
      <feFlood flood-color="#000" flood-opacity=".66"/>
      <feComposite in2="blur-2" operator="in"/>
      <feComposite in="SourceGraphic"/>
    </filter>
    <filter id="drop-shadow-3" x="8" y="55" width="27" height="33" filterUnits="userSpaceOnUse">
      <feOffset dx="1" dy="1"/>
      <feGaussianBlur result="blur-3" stdDeviation="2"/>
      <feFlood flood-color="#000" flood-opacity=".66"/>
      <feComposite in2="blur-3" operator="in"/>
      <feComposite in="SourceGraphic"/>
    </filter>
    <filter id="drop-shadow-4" x="5" y="62" width="23" height="23" filterUnits="userSpaceOnUse">
      <feOffset dx="1" dy="1"/>
      <feGaussianBlur result="blur-4" stdDeviation="2"/>
      <feFlood flood-color="#000" flood-opacity=".66"/>
      <feComposite in2="blur-4" operator="in"/>
      <feComposite in="SourceGraphic"/>
    </filter>
    <filter id="drop-shadow-5" x="34" y="24" width="38" height="48" filterUnits="userSpaceOnUse">
      <feOffset dx="1" dy="1"/>
      <feGaussianBlur result="blur-5" stdDeviation="2"/>
      <feFlood flood-color="#000" flood-opacity=".66"/>
      <feComposite in2="blur-5" operator="in"/>
      <feComposite in="SourceGraphic"/>
    </filter>
    <filter id="drop-shadow-6" x="64" y="24" width="40" height="48" filterUnits="userSpaceOnUse">
      <feOffset dx="1" dy="1"/>
      <feGaussianBlur result="blur-6" stdDeviation="2"/>
      <feFlood flood-color="#000" flood-opacity=".66"/>
      <feComposite in2="blur-6" operator="in"/>
      <feComposite in="SourceGraphic"/>
    </filter>
    <filter id="drop-shadow-7" x="130" y="24" width="40" height="48" filterUnits="userSpaceOnUse">
      <feOffset dx="1" dy="1"/>
      <feGaussianBlur result="blur-7" stdDeviation="2"/>
      <feFlood flood-color="#000" flood-opacity=".66"/>
      <feComposite in2="blur-7" operator="in"/>
      <feComposite in="SourceGraphic"/>
    </filter>
    <filter id="drop-shadow-8" x="160" y="24" width="41" height="48" filterUnits="userSpaceOnUse">
      <feOffset dx="1" dy="1"/>
      <feGaussianBlur result="blur-8" stdDeviation="2"/>
      <feFlood flood-color="#000" flood-opacity=".66"/>
      <feComposite in2="blur-8" operator="in"/>
      <feComposite in="SourceGraphic"/>
    </filter>
    <filter id="drop-shadow-9" x="97" y="13" width="43" height="58" filterUnits="userSpaceOnUse">
      <feOffset dx="1" dy="1"/>
      <feGaussianBlur result="blur-9" stdDeviation="2"/>
      <feFlood flood-color="#000" flood-opacity=".66"/>
      <feComposite in2="blur-9" operator="in"/>
      <feComposite in="SourceGraphic"/>
    </filter>
    <filter id="drop-shadow-10" x="64" y="65" width="137" height="20" filterUnits="userSpaceOnUse">
      <feOffset dx="1" dy="1"/>
      <feGaussianBlur result="blur-10" stdDeviation="2"/>
      <feFlood flood-color="#000" flood-opacity=".66"/>
      <feComposite in2="blur-10" operator="in"/>
      <feComposite in="SourceGraphic"/>
    </filter>
  </defs>
  <path class="cls-5" d="M17.13,52.33c-.02-.14-.03-.27-.05-.42-.11-1.23-.16-2.87-.16-4.94s.05-3.79.16-5.04c.11-1.25.31-2.21.61-2.87.3-.67.69-1.11,1.16-1.32.47-.22,1.1-.32,1.87-.32s1.4.11,1.87.32c.47.21.86.66,1.16,1.32.3.67.51,1.62.61,2.87.11,1.25.16,2.93.16,5.04s-.05,3.71-.16,4.94c-.02.22-.04.42-.07.61,1.49.41,2.95,1.06,4.32,1.96,1.85,1.22,3.36,2.69,4.54,4.32.62-1.1,1.12-2.36,1.47-3.8.54-2.22.81-4.9.81-8.04s-.27-5.76-.81-7.97c-.54-2.22-1.4-4.04-2.58-5.46-1.18-1.42-2.71-2.46-4.58-3.13-1.87-.67-4.12-1-6.75-1s-4.87.33-6.75,1c-1.87.67-3.4,1.71-4.58,3.13-1.18,1.42-2.04,3.24-2.58,5.46-.54,2.22-.81,4.87-.81,7.97s.27,5.82.81,8.04c.27,1.13.64,2.14,1.09,3.06,2.36-3.01,5.67-4.99,9.23-5.74Z"/>
  <path class="cls-1" d="M26.66,61.77c4.52,4.72,5.01,11.65,1.47,17.1-.25.38-1.12,1.29-1.06,1.68.06.41.51.55.86.41,1.67-.69,4.19-3.18,5.2-4.66,5.27-7.74,3.3-17.26-4.5-22.39-7.4-4.88-17.29-2.33-21.84,5.18-.38.63-1.55,2.42.01,2.18,5.83-5.51,14.27-5.34,19.87.5Z"/>
  <path class="cls-11" d="M16.24,80.63c3.94.63,8-1.33,10.13-4.69,4.41-6.92-1.09-16.1-9.28-15.53-.53.04-2.54.36-2.9.64-.34.27-.41.74-.02.98.18.11,1.66.2,2.07.3,8.59,2.07,8.8,14.24.3,16.62-.59.17-2.28.12-1.98,1,.16.47,1.2.6,1.67.68Z"/>
  <path class="cls-9" d="M20.29,73.73c.65-1.94.03-4.32-1.52-5.68-.33-.29-1.29-1.06-1.72-.88-.8.32.12,1.12.37,1.52,2.26,3.59-1.85,7.94-5.76,5.73-.32-.18-.53-.54-.95-.43-.25.07-.39.26-.36.52.02.17.35.64.46.8,2.68,3.5,8.08,2.6,9.48-1.58Z"/>
  <path class="cls-4" d="M40.16,55.72c1.81.13,3.55.24,5.23.32,1.68.09,3.14.13,4.39.13,1.94,0,3.25-.16,3.94-.48.69-.32,1.03-.98,1.03-1.97,0-.43-.06-.78-.19-1.03-.13-.26-.37-.49-.71-.71-.35-.22-.81-.41-1.39-.58s-1.35-.37-2.29-.58c-1.81-.43-3.36-.89-4.65-1.39-1.29-.49-2.37-1.11-3.23-1.84-.86-.73-1.5-1.67-1.9-2.81-.41-1.14-.61-2.59-.61-4.36,0-2.24.3-4.06.9-5.46.6-1.4,1.45-2.51,2.55-3.32,1.1-.82,2.4-1.38,3.91-1.68,1.51-.3,3.16-.45,4.97-.45,2.54,0,4.57.18,6.1.55,1.53.37,2.66.7,3.39,1,.78.35,1.31.72,1.61,1.13.3.41.45,1.06.45,1.97v4.33c-2.84-.17-4.94-.29-6.29-.36-1.36-.06-2.38-.1-3.07-.1-1.46,0-2.57.12-3.32.36-.75.24-1.13.81-1.13,1.71s.35,1.46,1.06,1.81c.71.35,1.82.69,3.32,1.03,1.81.47,3.39.95,4.74,1.42,1.36.47,2.46,1.09,3.32,1.84.86.75,1.51,1.7,1.94,2.84.43,1.14.64,2.59.64,4.36,0,2.2-.31,4.02-.94,5.49s-1.5,2.63-2.61,3.49c-1.12.86-2.45,1.46-4,1.81-1.55.34-3.25.52-5.1.52-2.2,0-4.21-.17-6.04-.52-1.83-.34-3.17-.69-4.04-1.03-.77-.34-1.3-.76-1.58-1.26-.28-.49-.42-1.11-.42-1.84v-4.33Z"/>
  <path class="cls-7" d="M78.83,64.24c-3.1,0-5.48-.93-7.13-2.78-1.66-1.85-2.49-4.48-2.49-7.88,0-2.32.38-4.18,1.13-5.58.75-1.4,1.75-2.45,3-3.16,1.25-.71,2.67-1.17,4.26-1.39,1.59-.21,3.25-.32,4.97-.32h3.94v-1.94c0-1.38-.47-2.23-1.42-2.55-.95-.32-2.41-.48-4.39-.48-1.77,0-3.35.04-4.74.13-1.4.09-2.29.13-2.68.13-.82,0-1.4-.21-1.74-.65-.35-.43-.52-.93-.52-1.48v-4.52c1.2-.52,2.82-1.01,4.84-1.48,2.02-.47,4.35-.71,6.97-.71,5.04,0,8.65,1.06,10.84,3.16,2.2,2.11,3.29,5.12,3.29,9.04v22.08h-6.2c-.47,0-.87-.03-1.19-.1-.32-.06-.59-.19-.81-.39-.22-.19-.41-.46-.58-.81-.17-.34-.35-.77-.52-1.29l-.39-1.03c-.86.95-1.98,1.85-3.36,2.71-1.38.86-3.08,1.29-5.1,1.29ZM86.45,49.4h-4.13c-1.42,0-2.42.31-3,.94-.58.62-.87,1.5-.87,2.61,0,1.33.32,2.25.97,2.74.65.5,1.57.74,2.78.74,1.72,0,3.14-.43,4.26-1.29v-5.75Z"/>
  <path class="cls-3" d="M144.8,64.24c-3.1,0-5.48-.93-7.13-2.78-1.66-1.85-2.49-4.48-2.49-7.88,0-2.32.38-4.18,1.13-5.58.75-1.4,1.75-2.45,3-3.16,1.25-.71,2.67-1.17,4.26-1.39,1.59-.21,3.25-.32,4.97-.32h3.94v-1.94c0-1.38-.47-2.23-1.42-2.55-.95-.32-2.41-.48-4.39-.48-1.77,0-3.35.04-4.74.13-1.4.09-2.29.13-2.68.13-.82,0-1.4-.21-1.74-.65-.35-.43-.52-.93-.52-1.48v-4.52c1.2-.52,2.82-1.01,4.84-1.48,2.02-.47,4.35-.71,6.97-.71,5.04,0,8.65,1.06,10.84,3.16,2.2,2.11,3.29,5.12,3.29,9.04v22.08h-6.2c-.47,0-.87-.03-1.19-.1-.32-.06-.59-.19-.81-.39-.22-.19-.41-.46-.58-.81-.17-.34-.35-.77-.52-1.29l-.39-1.03c-.86.95-1.98,1.85-3.36,2.71-1.38.86-3.08,1.29-5.1,1.29ZM152.42,49.4h-4.13c-1.42,0-2.42.31-3,.94-.58.62-.87,1.5-.87,2.61,0,1.33.32,2.25.97,2.74.65.5,1.57.74,2.78.74,1.72,0,3.14-.43,4.26-1.29v-5.75Z"/>
  <path class="cls-6" d="M176.43,64.05h-8.39c-1.59,0-2.39-.75-2.39-2.26v-31.25h6.2c.99,0,1.67.16,2.03.48.36.32.72,1.02,1.06,2.1l.39,1.16c1.51-1.63,2.98-2.8,4.42-3.49,1.44-.69,3.13-1.03,5.07-1.03,6.11,0,9.17,3.79,9.17,11.36v22.92h-8.39c-1.59,0-2.39-.75-2.39-2.26v-19.56c0-1.12-.22-1.95-.64-2.49-.43-.54-1.23-.81-2.39-.81-.65,0-1.31.11-2,.32s-1.27.54-1.74.97v23.82Z"/>
  <path class="cls-8" d="M127.73,53.46c-1.74-2.93-3.52-5.42-5.33-7.49,1.42-1.68,2.8-3.49,4.13-5.42,1.33-1.94,2.45-3.66,3.36-5.16.43-.69.73-1.3.9-1.84.17-.54.26-.98.26-1.32,0-.65-.19-1.12-.58-1.42-.39-.3-.84-.45-1.36-.45h-8.33c-.78,1.81-1.71,3.82-2.81,6.04-1.1,2.22-2.61,4.55-4.55,7v-22.17c0-1.51-.8-2.26-2.39-2.26l-8.39,3.46v39.18c0,1.51.8,2.26,2.39,2.26h8.39v-15.04c.73,1.16,1.39,2.25,1.97,3.26.58,1.01,1.12,2,1.61,2.97.49.97.97,1.96,1.42,2.97.45,1.01.91,2.1,1.39,3.26.3.73.67,1.35,1.1,1.84.43.5,1.14.74,2.13.74h9.55c-1.51-4-3.13-7.47-4.87-10.39Z"/>
  <g class="cls-10">
    <path class="cls-2" d="M72.4,70.17c.23,0,.47.02.7.06s.41.1.55.16c.12.06.21.13.25.22.04.08.06.19.06.33v.76c-.21-.01-.41-.03-.61-.04s-.42-.02-.66-.02-.42.03-.57.1c-.15.07-.26.18-.35.34-.09.16-.14.38-.17.66-.03.28-.05.64-.05,1.07s.02.81.05,1.1c.03.29.09.52.18.69.08.17.19.29.32.36.13.07.3.1.49.1.23,0,.43,0,.62-.02.19-.01.34-.02.46-.02.25,0,.37.12.37.37v.84c-.23.1-.49.17-.77.23s-.63.09-1.05.09c-.38,0-.73-.06-1.04-.17-.31-.11-.57-.31-.79-.59-.22-.28-.39-.66-.5-1.13-.12-.47-.18-1.08-.18-1.8s.05-1.29.15-1.76.26-.86.47-1.14.5-.49.84-.62c.34-.12.76-.19,1.24-.19Z"/>
    <path class="cls-2" d="M82.6,77.44c-.25,0-.38-.12-.38-.36v-6.66c.38-.08.77-.13,1.16-.17.39-.04.77-.06,1.15-.06.82,0,1.44.18,1.86.55.41.36.62.96.62,1.78,0,.17-.02.35-.05.53s-.08.36-.15.53c-.07.17-.17.32-.3.47-.13.14-.29.27-.48.37.14.19.28.4.42.63.13.24.26.49.38.76.12.27.22.54.32.82s.18.55.24.81h-1.48c-.12,0-.22-.02-.3-.07-.08-.05-.13-.14-.18-.27-.12-.41-.27-.82-.45-1.23-.18-.41-.35-.75-.5-1.03h-.48v2.6h-1.37ZM83.97,73.54h.55c.1,0,.2-.02.29-.05.09-.03.17-.08.25-.16.07-.08.13-.18.17-.31s.06-.3.06-.5c0-.22-.02-.39-.05-.53s-.09-.23-.15-.3c-.07-.07-.15-.12-.26-.14-.1-.02-.22-.04-.35-.04h-.11s-.09,0-.14,0c-.05,0-.1,0-.14.01-.05,0-.09,0-.11,0v2.01Z"/>
    <path class="cls-2" d="M100.25,74.77c0,.43-.03.82-.09,1.17-.06.35-.18.64-.37.89-.18.24-.43.43-.75.56-.32.13-.74.19-1.25.19-.43,0-.81-.04-1.13-.13s-.59-.23-.8-.44c-.21-.21-.37-.49-.47-.86-.1-.36-.15-.82-.15-1.38v-4.47h1.42c.25,0,.38.12.38.36v4.4c0,.18.01.33.03.47.02.13.06.25.11.33.05.09.12.16.22.2.09.04.21.07.37.07s.28-.02.38-.06c.09-.04.16-.11.21-.2.04-.09.07-.2.09-.34.01-.14.02-.31.02-.5v-4.73h1.42c.25,0,.38.12.38.36v4.11Z"/>
    <path class="cls-2" d="M109.03,77.44c-.25,0-.38-.12-.38-.36v-6.78h1.42c.25,0,.38.12.38.36v6.78h-1.42Z"/>
    <path class="cls-2" d="M118.77,72.35c0-.41.06-.75.17-1.03.11-.28.28-.5.49-.67.21-.17.47-.3.77-.37s.64-.11,1.02-.11c.34,0,.64.02.88.07.24.05.43.09.57.15.18.08.28.16.31.27.03.1.05.2.05.3v.74c-.16,0-.3-.02-.42-.03-.12-.01-.24-.02-.36-.02-.12,0-.23,0-.35-.01-.12,0-.24,0-.38,0-.21,0-.39.01-.52.04-.13.03-.24.07-.31.11-.08.05-.13.11-.15.19-.03.08-.04.16-.04.25,0,.1.01.19.04.26s.07.14.14.2c.07.06.18.13.32.2.14.07.33.15.57.26.32.14.58.27.8.4.22.13.39.28.53.44.13.16.23.36.29.58.06.22.09.48.09.79,0,.39-.04.73-.13,1-.09.28-.23.51-.43.69-.2.18-.45.32-.76.4-.31.09-.69.13-1.13.13-.33,0-.64-.02-.93-.06-.29-.04-.51-.09-.67-.15-.14-.05-.24-.13-.3-.21s-.08-.19-.08-.3v-.83c.27.02.53.04.78.05.25.01.52.02.78.02.23,0,.42-.01.57-.04.15-.03.26-.07.34-.12.08-.05.13-.12.16-.2.03-.08.04-.17.04-.26,0-.12-.02-.22-.05-.3-.03-.08-.09-.15-.18-.22s-.2-.13-.35-.2c-.15-.07-.33-.15-.56-.24-.32-.13-.59-.26-.79-.4s-.37-.29-.48-.46-.2-.36-.25-.57c-.05-.21-.07-.45-.07-.72Z"/>
    <path class="cls-2" d="M135.36,70.3c.25,0,.38.12.38.36v1.06h-2.49v1.36h1.81c.25,0,.38.12.38.36v1.06h-2.2v1.52h2.22c.25,0,.38.12.38.36v1.06h-3.97c-.25,0-.38-.12-.38-.36v-6.78h3.86Z"/>
    <path class="cls-2" d="M153.61,77.44c-.25,0-.38-.12-.38-.36v-6.78h1.42c.25,0,.38.12.38.36v5.31h1.92c.25,0,.38.12.38.36v1.11h-3.72Z"/>
    <path class="cls-2" d="M165.8,77.44c-.25,0-.38-.12-.38-.36v-6.78h1.42c.25,0,.38.12.38.36v6.78h-1.42Z"/>
    <path class="cls-2" d="M180.82,77.44h-1.41c-.1,0-.19-.04-.25-.11-.07-.08-.12-.16-.15-.26-.14-.35-.28-.71-.42-1.07-.14-.36-.29-.71-.44-1.06-.15-.34-.29-.67-.43-.99-.14-.32-.28-.6-.41-.85v4.33h-1.26c-.25,0-.38-.12-.38-.36v-6.78h1.35c.1,0,.19.04.27.11s.14.16.19.26c.12.24.25.51.4.81.15.3.3.62.45.95.15.33.3.66.45,1,.15.34.29.67.41.98v-4.12h1.26c.25,0,.38.12.38.36v6.78Z"/>
    <path class="cls-2" d="M193.12,70.3c.25,0,.38.12.38.36v1.06h-2.49v1.36h1.81c.25,0,.38.12.38.36v1.06h-2.19v1.52h2.22c.25,0,.38.12.38.36v1.06h-3.97c-.25,0-.38-.12-.38-.36v-6.78h3.86Z"/>
  </g>
</svg>