<?xml version="1.0" encoding="UTF-8"?>
<svg id="Capa_1" data-name="Capa 1" xmlns="http://www.w3.org/2000/svg" viewBox="0 0 243.85 241.23">
  <defs>
    <style>
      .cls-1 {
        fill: #f4da42;
      }

      .cls-2 {
        fill: #1d454c;
      }
    </style>
  </defs>
  <rect class="cls-1" x="8.67" y="8.9" width="226.52" height="226.52" rx="9.24" ry="9.24"/>
  <g>
    <path class="cls-2" d="M155.65,81.21c-4.12,0-7.47,3.34-7.47,7.47s3.34,7.47,7.47,7.47,7.47-3.34,7.47-7.47-3.34-7.47-7.47-7.47Z"/>
    <path class="cls-2" d="M122.45,90.79c-17.3,0-31.37,14.07-31.37,31.37s14.07,31.37,31.37,31.37,31.37-14.07,31.37-31.37-14.07-31.37-31.37-31.37ZM122.45,142.25c-11.08,0-20.09-9.01-20.09-20.09s9.01-20.09,20.09-20.09,20.09,9.01,20.09,20.09-9.01,20.09-20.09,20.09Z"/>
    <path class="cls-2" d="M147.35,185.85h-50.86c-21.1,0-38.26-17.16-38.26-38.26v-50.86c0-21.1,17.16-38.26,38.26-38.26h50.86c21.1,0,38.26,17.16,38.26,38.26v50.86c0,21.1-17.17,38.26-38.26,38.26ZM96.5,70.45c-14.49,0-26.28,11.79-26.28,26.28v50.86c0,14.49,11.79,26.28,26.28,26.28h50.86c14.49,0,26.28-11.79,26.28-26.28v-50.86c0-14.49-11.79-26.28-26.28-26.28h-50.86Z"/>
  </g>
</svg>